<svg class="railroad" viewBox="0 0 996 997" xmlns="http://www.w3.org/2000/svg" xmlns:xlink="http://www.w3.org/1999/xlink">
<style type="text/css">
svg.railroad {
    background-color: hsl(30, 20%, 95%);
    background-size: 15px 15px;
    background-image: linear-gradient(to right, rgba(30, 30, 30, .05) 1px, transparent 1px),
    linear-gradient(to bottom, rgba(30, 30, 30, .05) 1px, transparent 1px);
}

svg.railroad path {
    stroke-width: 3px;
    stroke: black;
    fill: transparent;
}

svg.railroad .debug {
    stroke-width: 1px;
    stroke: red;
}

svg.railroad text {
    font-size: 14px;
    font-family: monospace;
    text-anchor: middle;
}

svg.railroad .nonterminal text {
    font-weight: bold;
}

svg.railroad text.comment {
    font-family: serif;
    font-style: italic;
    font-size: 12px;
}

svg.railroad rect {
    stroke-width: 3px;
    stroke: black;
}

svg.railroad g.labeledbox > rect {
    stroke-width: 1px;
    stroke: grey;
    stroke-dasharray: 5px;
    fill: rgba(90, 90, 150, .1);
}

svg.railroad .symbol > rect {
    fill: rgba(90, 90, 150, .1);
}

svg.railroad .regex > rect {
    fill: honeydew;
}

svg.railroad .string > rect {
    fill: cornsilk;
}

svg.railroad .character > rect {
    fill: lightcoral;
}
</style>
<g class="verticalgrid">
<g class="sequence">
<path d=" M 10 21 a 5 5 0 0 1 5 -5 a 5 5 0 0 1 5 5 a 5 5 0 0 1 -5 5 a 5 5 0 0 1 -5 -5 m 10 0 h 5"/>
<text class="comment" id="Value" x="57" y="26">
Value</text>
<g class="choice">
<path d=" M 90 21 h 24 m 68 0 h 32"/>
<a class="link" xlink:href="#Object">
<g class="symbol">
<rect height="22" width="68" x="114" y="10"/>
<text x="148" y="26">
Object</text>
</g>
</a>
<path d=" M 90 21 a 12 12 0 0 1 12 12 v 9 m 100 0 v -9 a 12 12 0 0 1 12 -12"/>
<path d=" M 102 42 v 33 m 100 0 v -33"/>
<path d=" M 102 75 v 33 m 100 0 v -33"/>
<path d=" M 102 108 v 33 m 100 0 v -33"/>
<path d=" M 102 141 v 33 m 100 0 v -33"/>
<path d=" M 102 42 v 0 a 12 12 0 0 0 12 12 m 60 0 h 16 a 12 12 0 0 0 12 -12 v 0"/>
<a class="link" xlink:href="#Array">
<g class="symbol">
<rect height="22" width="60" x="114" y="43"/>
<text x="144" y="59">
Array</text>
</g>
</a>
<path d=" M 102 75 v 0 a 12 12 0 0 0 12 12 m 68 0 h 8 a 12 12 0 0 0 12 -12 v 0"/>
<a class="link" xlink:href="#String">
<g class="symbol">
<rect height="22" width="68" x="114" y="76"/>
<text x="148" y="92">
String</text>
</g>
</a>
<path d=" M 102 108 v 0 a 12 12 0 0 0 12 12 m 68 0 h 8 a 12 12 0 0 0 12 -12 v 0"/>
<a class="link" xlink:href="#Number">
<g class="symbol">
<rect height="22" width="68" x="114" y="109"/>
<text x="148" y="125">
Number</text>
</g>
</a>
<path d=" M 102 141 v 0 a 12 12 0 0 0 12 12 m 76 0 h 0 a 12 12 0 0 0 12 -12 v 0"/>
<a class="link" xlink:href="#Boolean">
<g class="symbol">
<rect height="22" width="76" x="114" y="142"/>
<text x="152" y="158">
Boolean</text>
</g>
</a>
<path d=" M 102 174 v 0 a 12 12 0 0 0 12 12 m 52 0 h 24 a 12 12 0 0 0 12 -12 v 0"/>
<a class="link" xlink:href="#Null">
<g class="symbol">
<rect height="22" width="52" x="114" y="175"/>
<text x="140" y="191">
Null</text>
</g>
</a>
</g>
<path d=" M 224 21 h 5 a 5 5 0 0 1 5 -5 a 5 5 0 0 1 5 5 a 5 5 0 0 1 -5 5 a 5 5 0 0 1 -5 -5"/>
<path d=" M 25 21 h 10"/>
<path d=" M 80 21 h 10"/>
<path d=" M 214 21 h 10"/>
</g>
<g class="sequence">
<path d=" M 10 233 a 5 5 0 0 1 5 -5 a 5 5 0 0 1 5 5 a 5 5 0 0 1 -5 5 a 5 5 0 0 1 -5 -5 m 10 0 h 5"/>
<text class="comment" id="Object" x="61" y="238">
Object</text>
<g class="sequence">
<g class="string">
<rect height="22" rx="10" ry="10" width="28" x="97" y="222"/>
<text x="111" y="238">
{</text>
</g>
<g class="character">
<rect height="22" rx="10" ry="10" width="76" x="135" y="222"/>
<text x="173" y="238">
IGNORED</text>
</g>
<g class="optional">
<path d=" M 221 233 h 24 m -24 0 a 12 12 0 0 0 12 -12 v 0 a 12 12 0 0 1 12 -12 h 568 m -281 0 l -5 -5 m 0 10 l 5 -5 m 281 0 a 12 12 0 0 1 12 12 v 0 a 12 12 0 0 0 12 12 h -24"/>
<g class="sequence">
<a class="link" xlink:href="#ObjectPair">
<g class="symbol">
<rect height="22" width="100" x="245" y="222"/>
<text x="295" y="238">
ObjectPair</text>
</g>
</a>
<g class="character">
<rect height="22" rx="10" ry="10" width="76" x="355" y="222"/>
<text x="393" y="238">
IGNORED</text>
</g>
<g class="repeat">
<path d=" M 441 233 h 12 m 224 0 h 12 m -12 0 a 12 12 0 0 1 12 12 v 7 a 12 12 0 0 1 -12 12 m -17 0 h -207 m 106 0 l 5 -5 m 0 10 l -5 -5 m -106 0 a 12 12 0 0 1 -12 -12 v -7 a 12 12 0 0 1 12 -12"/>
<text class="comment" x="668" y="269">
*</text>
<g class="sequence">
<g class="sequence">
<g class="string">
<rect height="22" rx="10" ry="10" width="28" x="453" y="222"/>
<text x="467" y="238">
,</text>
</g>
<g class="character">
<rect height="22" rx="10" ry="10" width="76" x="491" y="222"/>
<text x="529" y="238">
IGNORED</text>
</g>
<path d=" M 481 233 h 10"/>
</g>
<a class="link" xlink:href="#ObjectPair">
<g class="symbol">
<rect height="22" width="100" x="577" y="222"/>
<text x="627" y="238">
ObjectPair</text>
</g>
</a>
<path d=" M 567 233 h 10"/>
</g>
</g>
<g class="character">
<rect height="22" rx="10" ry="10" width="76" x="699" y="222"/>
<text x="737" y="238">
IGNORED</text>
</g>
<g class="string">
<rect height="22" rx="10" ry="10" width="28" x="785" y="222"/>
<text x="799" y="238">
,</text>
</g>
<path d=" M 345 233 h 10"/>
<path d=" M 431 233 h 10"/>
<path d=" M 689 233 h 10"/>
<path d=" M 775 233 h 10"/>
</g>
</g>
<g class="character">
<rect height="22" rx="10" ry="10" width="76" x="847" y="222"/>
<text x="885" y="238">
IGNORED</text>
</g>
<g class="string">
<rect height="22" rx="10" ry="10" width="28" x="933" y="222"/>
<text x="947" y="238">
}</text>
</g>
<path d=" M 125 233 h 10"/>
<path d=" M 211 233 h 10"/>
<path d=" M 837 233 h 10"/>
<path d=" M 923 233 h 10"/>
</g>
<path d=" M 971 233 h 5 a 5 5 0 0 1 5 -5 a 5 5 0 0 1 5 5 a 5 5 0 0 1 -5 5 a 5 5 0 0 1 -5 -5"/>
<path d=" M 25 233 h 10"/>
<path d=" M 87 233 h 10"/>
<path d=" M 961 233 h 10"/>
</g>
<g class="sequence">
<path d=" M 10 297 a 5 5 0 0 1 5 -5 a 5 5 0 0 1 5 5 a 5 5 0 0 1 -5 5 a 5 5 0 0 1 -5 -5 m 10 0 h 5"/>
<text class="comment" id="ObjectPair" x="75" y="302">
ObjectPair</text>
<g class="sequence">
<g class="sequence">
<a class="link" xlink:href="#ObjectKey">
<g class="symbol">
<rect height="22" width="92" x="125" y="286"/>
<text x="171" y="302">
ObjectKey</text>
</g>
</a>
<g class="character">
<rect height="22" rx="10" ry="10" width="76" x="227" y="286"/>
<text x="265" y="302">
IGNORED</text>
</g>
<g class="string">
<rect height="22" rx="10" ry="10" width="28" x="313" y="286"/>
<text x="327" y="302">
:</text>
</g>
<g class="character">
<rect height="22" rx="10" ry="10" width="76" x="351" y="286"/>
<text x="389" y="302">
IGNORED</text>
</g>
<path d=" M 217 297 h 10"/>
<path d=" M 303 297 h 10"/>
<path d=" M 341 297 h 10"/>
</g>
<a class="link" xlink:href="#Value">
<g class="symbol">
<rect height="22" width="60" x="437" y="286"/>
<text x="467" y="302">
Value</text>
</g>
</a>
<path d=" M 427 297 h 10"/>
</g>
<path d=" M 507 297 h 5 a 5 5 0 0 1 5 -5 a 5 5 0 0 1 5 5 a 5 5 0 0 1 -5 5 a 5 5 0 0 1 -5 -5"/>
<path d=" M 25 297 h 10"/>
<path d=" M 115 297 h 10"/>
<path d=" M 497 297 h 10"/>
</g>
<g class="sequence">
<path d=" M 10 331 a 5 5 0 0 1 5 -5 a 5 5 0 0 1 5 5 a 5 5 0 0 1 -5 5 a 5 5 0 0 1 -5 -5 m 10 0 h 5"/>
<text class="comment" id="ObjectKey" x="71" y="336">
ObjectKey</text>
<g class="choice">
<path d=" M 118 331 h 24 m 100 0 h 24"/>
<a class="link" xlink:href="#Identifier">
<g class="symbol">
<rect height="22" width="100" x="142" y="320"/>
<text x="192" y="336">
Identifier</text>
</g>
</a>
<path d=" M 118 331 a 12 12 0 0 1 12 12 v 9 m 124 0 v -9 a 12 12 0 0 1 12 -12"/>
<path d=" M 130 352 v 0 a 12 12 0 0 0 12 12 m 68 0 h 32 a 12 12 0 0 0 12 -12 v 0"/>
<a class="link" xlink:href="#String">
<g class="symbol">
<rect height="22" width="68" x="142" y="353"/>
<text x="176" y="369">
String</text>
</g>
</a>
</g>
<path d=" M 276 331 h 5 a 5 5 0 0 1 5 -5 a 5 5 0 0 1 5 5 a 5 5 0 0 1 -5 5 a 5 5 0 0 1 -5 -5"/>
<path d=" M 25 331 h 10"/>
<path d=" M 108 331 h 10"/>
<path d=" M 266 331 h 10"/>
</g>
<g class="sequence">
<path d=" M 10 411 a 5 5 0 0 1 5 -5 a 5 5 0 0 1 5 5 a 5 5 0 0 1 -5 5 a 5 5 0 0 1 -5 -5 m 10 0 h 5"/>
<text class="comment" id="Array" x="57" y="416">
Array</text>
<g class="sequence">
<g class="string">
<rect height="22" rx="10" ry="10" width="28" x="90" y="400"/>
<text x="104" y="416">
[</text>
</g>
<g class="character">
<rect height="22" rx="10" ry="10" width="76" x="128" y="400"/>
<text x="166" y="416">
IGNORED</text>
</g>
<g class="optional">
<path d=" M 214 411 h 24 m -24 0 a 12 12 0 0 0 12 -12 v 0 a 12 12 0 0 1 12 -12 h 488 m -241 0 l -5 -5 m 0 10 l 5 -5 m 241 0 a 12 12 0 0 1 12 12 v 0 a 12 12 0 0 0 12 12 h -24"/>
<g class="sequence">
<a class="link" xlink:href="#Value">
<g class="symbol">
<rect height="22" width="60" x="238" y="400"/>
<text x="268" y="416">
Value</text>
</g>
</a>
<g class="character">
<rect height="22" rx="10" ry="10" width="76" x="308" y="400"/>
<text x="346" y="416">
IGNORED</text>
</g>
<g class="repeat">
<path d=" M 394 411 h 12 m 184 0 h 12 m -12 0 a 12 12 0 0 1 12 12 v 7 a 12 12 0 0 1 -12 12 m -17 0 h -167 m 86 0 l 5 -5 m 0 10 l -5 -5 m -86 0 a 12 12 0 0 1 -12 -12 v -7 a 12 12 0 0 1 12 -12"/>
<text class="comment" x="581" y="447">
*</text>
<g class="sequence">
<g class="sequence">
<g class="string">
<rect height="22" rx="10" ry="10" width="28" x="406" y="400"/>
<text x="420" y="416">
,</text>
</g>
<g class="character">
<rect height="22" rx="10" ry="10" width="76" x="444" y="400"/>
<text x="482" y="416">
IGNORED</text>
</g>
<path d=" M 434 411 h 10"/>
</g>
<a class="link" xlink:href="#Value">
<g class="symbol">
<rect height="22" width="60" x="530" y="400"/>
<text x="560" y="416">
Value</text>
</g>
</a>
<path d=" M 520 411 h 10"/>
</g>
</g>
<g class="character">
<rect height="22" rx="10" ry="10" width="76" x="612" y="400"/>
<text x="650" y="416">
IGNORED</text>
</g>
<g class="string">
<rect height="22" rx="10" ry="10" width="28" x="698" y="400"/>
<text x="712" y="416">
,</text>
</g>
<path d=" M 298 411 h 10"/>
<path d=" M 384 411 h 10"/>
<path d=" M 602 411 h 10"/>
<path d=" M 688 411 h 10"/>
</g>
</g>
<g class="character">
<rect height="22" rx="10" ry="10" width="76" x="760" y="400"/>
<text x="798" y="416">
IGNORED</text>
</g>
<g class="string">
<rect height="22" rx="10" ry="10" width="28" x="846" y="400"/>
<text x="860" y="416">
]</text>
</g>
<path d=" M 118 411 h 10"/>
<path d=" M 204 411 h 10"/>
<path d=" M 750 411 h 10"/>
<path d=" M 836 411 h 10"/>
</g>
<path d=" M 884 411 h 5 a 5 5 0 0 1 5 -5 a 5 5 0 0 1 5 5 a 5 5 0 0 1 -5 5 a 5 5 0 0 1 -5 -5"/>
<path d=" M 25 411 h 10"/>
<path d=" M 80 411 h 10"/>
<path d=" M 874 411 h 10"/>
</g>
<g class="sequence">
<path d=" M 10 475 a 5 5 0 0 1 5 -5 a 5 5 0 0 1 5 5 a 5 5 0 0 1 -5 5 a 5 5 0 0 1 -5 -5 m 10 0 h 5"/>
<text class="comment" id="String" x="61" y="480">
String</text>
<g class="choice">
<path d=" M 97 475 h 24 m 168 0 h 56 m -25 0 l -5 -5 m 0 10 l 5 -5 m 25 0"/>
<g class="sequence">
<g class="string">
<rect height="22" rx="10" ry="10" width="28" x="121" y="464"/>
<text x="135" y="480">
&#x27;</text>
</g>
<a class="link" xlink:href="#StringRaw">
<g class="symbol">
<rect height="22" width="92" x="159" y="464"/>
<text x="205" y="480">
StringRaw</text>
</g>
</a>
<g class="string">
<rect height="22" rx="10" ry="10" width="28" x="261" y="464"/>
<text x="275" y="480">
&#x27;</text>
</g>
<path d=" M 149 475 h 10"/>
<path d=" M 251 475 h 10"/>
</g>
<path d=" M 97 475 a 12 12 0 0 1 12 12 v 9 m 224 0 v -9 a 12 12 0 0 1 12 -12"/>
<path d=" M 109 496 v 0 a 12 12 0 0 0 12 12 m 200 0 h 0 a 12 12 0 0 0 12 -12 v 0"/>
<g class="sequence">
<g class="string">
<rect height="22" rx="10" ry="10" width="28" x="121" y="497"/>
<text x="135" y="513">
&#x27;</text>
</g>
<g class="repeat">
<path d=" M 159 508 h 12 m 100 0 h 12 m -12 0 a 12 12 0 0 1 12 12 v 7 a 12 12 0 0 1 -12 12 m -17 0 h -83 m 44 0 l 5 -5 m 0 10 l -5 -5 m -44 0 a 12 12 0 0 1 -12 -12 v -7 a 12 12 0 0 1 12 -12"/>
<text class="comment" x="262" y="544">
*</text>
<a class="link" xlink:href="#StringText">
<g class="symbol">
<rect height="22" width="100" x="171" y="497"/>
<text x="221" y="513">
StringText</text>
</g>
</a>
</g>
<g class="string">
<rect height="22" rx="10" ry="10" width="28" x="293" y="497"/>
<text x="307" y="513">
&#x27;</text>
</g>
<path d=" M 149 508 h 10"/>
<path d=" M 283 508 h 10"/>
</g>
</g>
<path d=" M 355 475 h 5 a 5 5 0 0 1 5 -5 a 5 5 0 0 1 5 5 a 5 5 0 0 1 -5 5 a 5 5 0 0 1 -5 -5"/>
<path d=" M 25 475 h 10"/>
<path d=" M 87 475 h 10"/>
<path d=" M 345 475 h 10"/>
</g>
<g class="sequence">
<path d=" M 10 572 a 5 5 0 0 1 5 -5 a 5 5 0 0 1 5 5 a 5 5 0 0 1 -5 5 a 5 5 0 0 1 -5 -5 m 10 0 h 5"/>
<text class="comment" id="StringRaw" x="71" y="577">
StringRaw</text>
<g class="string">
<rect height="22" rx="10" ry="10" width="60" x="118" y="561"/>
<text x="148" y="577">
[^&quot;]*</text>
</g>
<path d=" M 188 572 h 5 a 5 5 0 0 1 5 -5 a 5 5 0 0 1 5 5 a 5 5 0 0 1 -5 5 a 5 5 0 0 1 -5 -5"/>
<path d=" M 25 572 h 10"/>
<path d=" M 108 572 h 10"/>
<path d=" M 178 572 h 10"/>
</g>
<g class="sequence">
<path d=" M 10 606 a 5 5 0 0 1 5 -5 a 5 5 0 0 1 5 5 a 5 5 0 0 1 -5 5 a 5 5 0 0 1 -5 -5 m 10 0 h 5"/>
<text class="comment" id="StringText" x="75" y="611">
StringText</text>
<g class="choice">
<path d=" M 125 606 h 24 m 116 0 h 24"/>
<a class="link" xlink:href="#StringEscape">
<g class="symbol">
<rect height="22" width="116" x="149" y="595"/>
<text x="207" y="611">
StringEscape</text>
</g>
</a>
<path d=" M 125 606 a 12 12 0 0 1 12 12 v 9 m 140 0 v -9 a 12 12 0 0 1 12 -12"/>
<path d=" M 137 627 v 0 a 12 12 0 0 0 12 12 m 60 0 h 56 m -25 0 l -5 -5 m 0 10 l 5 -5 m 25 0 a 12 12 0 0 0 12 -12 v 0"/>
<g class="string">
<rect height="22" rx="10" ry="10" width="60" x="149" y="628"/>
<text x="179" y="644">
[^&quot;]+</text>
</g>
</g>
<path d=" M 299 606 h 5 a 5 5 0 0 1 5 -5 a 5 5 0 0 1 5 5 a 5 5 0 0 1 -5 5 a 5 5 0 0 1 -5 -5"/>
<path d=" M 25 606 h 10"/>
<path d=" M 115 606 h 10"/>
<path d=" M 289 606 h 10"/>
</g>
<g class="sequence">
<path d=" M 10 673 a 5 5 0 0 1 5 -5 a 5 5 0 0 1 5 5 a 5 5 0 0 1 -5 5 a 5 5 0 0 1 -5 -5 m 10 0 h 5"/>
<text class="comment" id="StringEscape" x="82" y="678">
StringEscape</text>
<g class="sequence">
<g class="sequence">
<g class="string">
<rect height="22" rx="10" ry="10" width="28" x="139" y="662"/>
<text x="153" y="678">
\</text>
</g>
<g class="character">
<rect height="22" rx="10" ry="10" width="76" x="177" y="662"/>
<text x="215" y="678">
IGNORED</text>
</g>
<path d=" M 167 673 h 10"/>
</g>
<g class="character">
<rect height="22" rx="10" ry="10" width="44" x="263" y="662"/>
<text x="285" y="678">
ANY</text>
</g>
<path d=" M 253 673 h 10"/>
</g>
<path d=" M 317 673 h 5 a 5 5 0 0 1 5 -5 a 5 5 0 0 1 5 5 a 5 5 0 0 1 -5 5 a 5 5 0 0 1 -5 -5"/>
<path d=" M 25 673 h 10"/>
<path d=" M 129 673 h 10"/>
<path d=" M 307 673 h 10"/>
</g>
<g class="sequence">
<path d=" M 10 707 a 5 5 0 0 1 5 -5 a 5 5 0 0 1 5 5 a 5 5 0 0 1 -5 5 a 5 5 0 0 1 -5 -5 m 10 0 h 5"/>
<text class="comment" id="Number" x="61" y="712">
Number</text>
<g class="string">
<rect height="22" rx="10" ry="10" width="188" x="97" y="696"/>
<text x="191" y="712">
[+-]?(0|[1-9][0-9]*)</text>
</g>
<path d=" M 295 707 h 5 a 5 5 0 0 1 5 -5 a 5 5 0 0 1 5 5 a 5 5 0 0 1 -5 5 a 5 5 0 0 1 -5 -5"/>
<path d=" M 25 707 h 10"/>
<path d=" M 87 707 h 10"/>
<path d=" M 285 707 h 10"/>
</g>
<g class="sequence">
<path d=" M 10 741 a 5 5 0 0 1 5 -5 a 5 5 0 0 1 5 5 a 5 5 0 0 1 -5 5 a 5 5 0 0 1 -5 -5 m 10 0 h 5"/>
<text class="comment" id="Identifier" x="75" y="746">
Identifier</text>
<g class="string">
<rect height="22" rx="10" ry="10" width="308" x="125" y="730"/>
<text x="279" y="746">
[_\p{XID_start}][\p{XID_continue}]*</text>
</g>
<path d=" M 443 741 h 5 a 5 5 0 0 1 5 -5 a 5 5 0 0 1 5 5 a 5 5 0 0 1 -5 5 a 5 5 0 0 1 -5 -5"/>
<path d=" M 25 741 h 10"/>
<path d=" M 115 741 h 10"/>
<path d=" M 433 741 h 10"/>
</g>
<g class="sequence">
<path d=" M 10 775 a 5 5 0 0 1 5 -5 a 5 5 0 0 1 5 5 a 5 5 0 0 1 -5 5 a 5 5 0 0 1 -5 -5 m 10 0 h 5"/>
<text class="comment" id="Boolean" x="64" y="780">
Boolean</text>
<g class="choice">
<path d=" M 104 775 h 24 m 52 0 h 32"/>
<g class="string">
<rect height="22" rx="10" ry="10" width="52" x="128" y="764"/>
<text x="154" y="780">
true</text>
</g>
<path d=" M 104 775 a 12 12 0 0 1 12 12 v 9 m 84 0 v -9 a 12 12 0 0 1 12 -12"/>
<path d=" M 116 796 v 0 a 12 12 0 0 0 12 12 m 60 0 h 0 a 12 12 0 0 0 12 -12 v 0"/>
<g class="string">
<rect height="22" rx="10" ry="10" width="60" x="128" y="797"/>
<text x="158" y="813">
false</text>
</g>
</g>
<path d=" M 222 775 h 5 a 5 5 0 0 1 5 -5 a 5 5 0 0 1 5 5 a 5 5 0 0 1 -5 5 a 5 5 0 0 1 -5 -5"/>
<path d=" M 25 775 h 10"/>
<path d=" M 94 775 h 10"/>
<path d=" M 212 775 h 10"/>
</g>
<g class="sequence">
<path d=" M 10 842 a 5 5 0 0 1 5 -5 a 5 5 0 0 1 5 5 a 5 5 0 0 1 -5 5 a 5 5 0 0 1 -5 -5 m 10 0 h 5"/>
<text class="comment" id="Null" x="54" y="847">
Null</text>
<g class="string">
<rect height="22" rx="10" ry="10" width="52" x="83" y="831"/>
<text x="109" y="847">
null</text>
</g>
<path d=" M 145 842 h 5 a 5 5 0 0 1 5 -5 a 5 5 0 0 1 5 5 a 5 5 0 0 1 -5 5 a 5 5 0 0 1 -5 -5"/>
<path d=" M 25 842 h 10"/>
<path d=" M 73 842 h 10"/>
<path d=" M 135 842 h 10"/>
</g>
<g class="sequence">
<path d=" M 10 876 a 5 5 0 0 1 5 -5 a 5 5 0 0 1 5 5 a 5 5 0 0 1 -5 5 a 5 5 0 0 1 -5 -5 m 10 0 h 5"/>
<text class="comment" id="WhiteSpace" x="75" y="881">
WhiteSpace</text>
<g class="string">
<rect height="22" rx="10" ry="10" width="148" x="125" y="865"/>
<text x="199" y="881">
[\p{WhiteSpace}]</text>
</g>
<path d=" M 283 876 h 5 a 5 5 0 0 1 5 -5 a 5 5 0 0 1 5 5 a 5 5 0 0 1 -5 5 a 5 5 0 0 1 -5 -5"/>
<path d=" M 25 876 h 10"/>
<path d=" M 115 876 h 10"/>
<path d=" M 273 876 h 10"/>
</g>
<g class="sequence">
<path d=" M 10 910 a 5 5 0 0 1 5 -5 a 5 5 0 0 1 5 5 a 5 5 0 0 1 -5 5 a 5 5 0 0 1 -5 -5 m 10 0 h 5"/>
<text class="comment" id="Comment" x="64" y="915">
Comment</text>
<g class="choice">
<path d=" M 104 910 h 24 m 116 0 h 32"/>
<g class="function">
<rect height="22" rx="10" ry="10" width="116" x="128" y="899"/>
<text x="186" y="915">
comment_line</text>
</g>
<path d=" M 104 910 a 12 12 0 0 1 12 12 v 9 m 148 0 v -9 a 12 12 0 0 1 12 -12"/>
<path d=" M 116 931 v 33 m 148 0 v -33"/>
<path d=" M 116 931 v 0 a 12 12 0 0 0 12 12 m 116 0 h 8 a 12 12 0 0 0 12 -12 v 0"/>
<g class="function">
<rect height="22" rx="10" ry="10" width="116" x="128" y="932"/>
<text x="186" y="948">
comment_line</text>
</g>
<path d=" M 116 964 v 0 a 12 12 0 0 0 12 12 m 124 0 h 0 a 12 12 0 0 0 12 -12 v 0"/>
<g class="function">
<rect height="22" rx="10" ry="10" width="124" x="128" y="965"/>
<text x="190" y="981">
comment_block</text>
</g>
</g>
<path d=" M 286 910 h 5 a 5 5 0 0 1 5 -5 a 5 5 0 0 1 5 5 a 5 5 0 0 1 -5 5 a 5 5 0 0 1 -5 -5"/>
<path d=" M 25 910 h 10"/>
<path d=" M 94 910 h 10"/>
<path d=" M 276 910 h 10"/>
</g>
</g>
</svg>
